<?xml version="1.0" encoding="UTF-8"?> <svg xmlns="http://www.w3.org/2000/svg" id="Слой_1" data-name="Слой 1" viewBox="0 0 418.04 418.04"><defs><style>.cls-1{fill:none;stroke-width:8px;}.cls-1,.cls-2{stroke:#fff;stroke-miterlimit:10;}.cls-2{fill:#fff;stroke-width:3px;}</style></defs><title>замок закрыто белый</title><circle class="cls-1" cx="209.02" cy="209.02" r="205.02"></circle><path class="cls-2" d="M209,220.13a14.11,14.11,0,0,0-3.74,27.71V274.6a3.75,3.75,0,0,0,7.5,0V247.84A14.11,14.11,0,0,0,209,220.13Z"></path><path class="cls-2" d="M262.5,169.83V113.61a51.23,51.23,0,0,0-51.22-51.18h-4.61a51.23,51.23,0,0,0-51.18,51.18v56.22h-28v163h163v-163ZM160.65,113.61a46.12,46.12,0,0,1,46.07-46.07h4.56a46.12,46.12,0,0,1,46.07,46.07v56.22h-96.7ZM285.4,327.7H132.64V174.94H285.4Z"></path></svg> 